<svg xmlns="http://www.w3.org/2000/svg" width="1600" height="900" viewBox="0 0 1600 900">
  <defs>
    <radialGradient id="nebula" cx="35%" cy="45%" r="65%">
      <stop offset="0%"   stop-color="#1a1550" stop-opacity="1"/>
      <stop offset="60%"  stop-color="#0d0d30" stop-opacity="1"/>
      <stop offset="100%" stop-color="#04040f" stop-opacity="1"/>
    </radialGradient>
    <radialGradient id="glow1" cx="50%" cy="50%" r="50%">
      <stop offset="0%"   stop-color="#3b2f7a" stop-opacity="0.35"/>
      <stop offset="100%" stop-color="#3b2f7a" stop-opacity="0"/>
    </radialGradient>
    <radialGradient id="glow2" cx="50%" cy="50%" r="50%">
      <stop offset="0%"   stop-color="#1a4a7a" stop-opacity="0.25"/>
      <stop offset="100%" stop-color="#1a4a7a" stop-opacity="0"/>
    </radialGradient>
  </defs>

  <!-- Base dark background -->
  <rect width="1600" height="900" fill="url(#nebula)"/>

  <!-- Subtle glows -->
  <ellipse cx="400"  cy="350" rx="420" ry="300" fill="url(#glow1)"/>
  <ellipse cx="1200" cy="600" rx="380" ry="260" fill="url(#glow2)"/>

  <!-- Stars — varied sizes and opacities -->
  <circle cx="42"   cy="18"  r="1.0" fill="white" opacity="0.9"/>
  <circle cx="130"  cy="72"  r="1.5" fill="white" opacity="0.7"/>
  <circle cx="210"  cy="35"  r="0.8" fill="white" opacity="0.6"/>
  <circle cx="305"  cy="130" r="1.2" fill="white" opacity="0.8"/>
  <circle cx="88"   cy="195" r="1.0" fill="white" opacity="0.5"/>
  <circle cx="470"  cy="60"  r="1.8" fill="white" opacity="0.9"/>
  <circle cx="550"  cy="145" r="0.7" fill="white" opacity="0.6"/>
  <circle cx="620"  cy="30"  r="1.3" fill="white" opacity="0.7"/>
  <circle cx="730"  cy="90"  r="1.0" fill="white" opacity="0.8"/>
  <circle cx="810"  cy="20"  r="0.8" fill="white" opacity="0.5"/>
  <circle cx="920"  cy="75"  r="1.5" fill="white" opacity="0.7"/>
  <circle cx="1010" cy="140" r="1.0" fill="white" opacity="0.9"/>
  <circle cx="1100" cy="40"  r="0.7" fill="white" opacity="0.6"/>
  <circle cx="1190" cy="100" r="1.2" fill="white" opacity="0.8"/>
  <circle cx="1280" cy="55"  r="1.6" fill="white" opacity="0.7"/>
  <circle cx="1380" cy="130" r="0.9" fill="white" opacity="0.5"/>
  <circle cx="1490" cy="20"  r="1.1" fill="white" opacity="0.8"/>
  <circle cx="1540" cy="80"  r="0.7" fill="white" opacity="0.6"/>

  <circle cx="35"   cy="310" r="1.3" fill="white" opacity="0.6"/>
  <circle cx="160"  cy="260" r="0.8" fill="white" opacity="0.8"/>
  <circle cx="240"  cy="350" r="1.5" fill="white" opacity="0.5"/>
  <circle cx="360"  cy="280" r="1.0" fill="white" opacity="0.7"/>
  <circle cx="430"  cy="400" r="0.7" fill="white" opacity="0.9"/>
  <circle cx="515"  cy="320" r="1.2" fill="white" opacity="0.6"/>
  <circle cx="600"  cy="450" r="0.9" fill="white" opacity="0.7"/>
  <circle cx="700"  cy="380" r="1.4" fill="white" opacity="0.8"/>
  <circle cx="780"  cy="270" r="0.8" fill="white" opacity="0.5"/>
  <circle cx="870"  cy="420" r="1.1" fill="white" opacity="0.7"/>
  <circle cx="960"  cy="300" r="1.6" fill="white" opacity="0.9"/>
  <circle cx="1050" cy="370" r="0.7" fill="white" opacity="0.6"/>
  <circle cx="1140" cy="240" r="1.3" fill="white" opacity="0.8"/>
  <circle cx="1230" cy="410" r="1.0" fill="white" opacity="0.5"/>
  <circle cx="1320" cy="280" r="0.8" fill="white" opacity="0.7"/>
  <circle cx="1420" cy="350" r="1.5" fill="white" opacity="0.8"/>
  <circle cx="1510" cy="290" r="1.0" fill="white" opacity="0.6"/>
  <circle cx="1580" cy="430" r="0.7" fill="white" opacity="0.9"/>

  <circle cx="55"   cy="550" r="1.1" fill="white" opacity="0.7"/>
  <circle cx="150"  cy="620" r="0.8" fill="white" opacity="0.5"/>
  <circle cx="270"  cy="580" r="1.4" fill="white" opacity="0.8"/>
  <circle cx="390"  cy="650" r="0.9" fill="white" opacity="0.6"/>
  <circle cx="480"  cy="530" r="1.2" fill="white" opacity="0.9"/>
  <circle cx="570"  cy="690" r="0.7" fill="white" opacity="0.7"/>
  <circle cx="660"  cy="560" r="1.6" fill="white" opacity="0.5"/>
  <circle cx="760"  cy="630" r="1.0" fill="white" opacity="0.8"/>
  <circle cx="850"  cy="510" r="0.8" fill="white" opacity="0.6"/>
  <circle cx="940"  cy="660" r="1.3" fill="white" opacity="0.7"/>
  <circle cx="1030" cy="590" r="0.7" fill="white" opacity="0.9"/>
  <circle cx="1120" cy="720" r="1.5" fill="white" opacity="0.6"/>
  <circle cx="1210" cy="550" r="1.0" fill="white" opacity="0.8"/>
  <circle cx="1300" cy="640" r="0.8" fill="white" opacity="0.5"/>
  <circle cx="1390" cy="580" r="1.2" fill="white" opacity="0.7"/>
  <circle cx="1480" cy="700" r="0.9" fill="white" opacity="0.8"/>
  <circle cx="1560" cy="620" r="1.1" fill="white" opacity="0.6"/>

  <circle cx="70"   cy="800" r="0.8" fill="white" opacity="0.6"/>
  <circle cx="180"  cy="840" r="1.3" fill="white" opacity="0.8"/>
  <circle cx="300"  cy="790" r="0.7" fill="white" opacity="0.5"/>
  <circle cx="420"  cy="860" r="1.0" fill="white" opacity="0.7"/>
  <circle cx="540"  cy="810" r="1.5" fill="white" opacity="0.9"/>
  <circle cx="650"  cy="870" r="0.9" fill="white" opacity="0.6"/>
  <circle cx="760"  cy="820" r="1.1" fill="white" opacity="0.7"/>
  <circle cx="880"  cy="780" r="0.7" fill="white" opacity="0.8"/>
  <circle cx="990"  cy="850" r="1.4" fill="white" opacity="0.5"/>
  <circle cx="1100" cy="810" r="1.0" fill="white" opacity="0.7"/>
  <circle cx="1220" cy="870" r="0.8" fill="white" opacity="0.9"/>
  <circle cx="1340" cy="790" r="1.2" fill="white" opacity="0.6"/>
  <circle cx="1450" cy="850" r="0.7" fill="white" opacity="0.8"/>
  <circle cx="1560" cy="810" r="1.3" fill="white" opacity="0.5"/>

  <!-- A few brighter stars -->
  <circle cx="290"  cy="180" r="2.0" fill="white" opacity="0.95"/>
  <circle cx="830"  cy="480" r="2.2" fill="white" opacity="0.90"/>
  <circle cx="1350" cy="200" r="1.9" fill="white" opacity="0.95"/>
  <circle cx="680"  cy="750" r="2.1" fill="white" opacity="0.85"/>
  <circle cx="1150" cy="490" r="2.0" fill="white" opacity="0.90"/>
</svg>
